<svg width="24" height="33" viewBox="0 0 24 33" fill="none" xmlns="http://www.w3.org/2000/svg">
<path fill-rule="evenodd" clip-rule="evenodd" d="M23.9373 13.139C24.4367 9.77657 21.8951 7.96901 18.4198 6.76317L19.5471 2.20833L16.7947 1.51736L15.6971 5.95218C14.9735 5.77055 14.2303 5.59919 13.4919 5.42941L14.5972 0.96538L11.8463 0.274414L10.7182 4.82768C10.1193 4.69028 9.53132 4.55445 8.9606 4.41152L8.96374 4.39731L5.16783 3.44259L4.43562 6.40387C4.43562 6.40387 6.47782 6.87531 6.4347 6.90453C7.54948 7.18486 7.75096 7.92794 7.71725 8.51704L6.43313 13.706C6.50996 13.7257 6.60952 13.7542 6.71928 13.7984L6.62599 13.7749L6.6258 13.7749C6.56203 13.7588 6.49593 13.7421 6.42843 13.7257L4.62847 20.9947C4.49206 21.3358 4.14634 21.8475 3.36709 21.6533C3.39452 21.6936 1.36643 21.1503 1.36643 21.1503L0 24.324L3.58189 25.2234C3.98193 25.3244 4.37717 25.4282 4.76828 25.5309C5.02866 25.5993 5.28721 25.6673 5.54413 25.7335L4.40504 30.3405L7.15437 31.0315L8.28248 26.4735C9.03351 26.6788 9.76259 26.8683 10.476 27.0468L9.3518 31.5834L12.1043 32.2744L13.2433 27.6761C17.9369 28.5708 21.4663 28.21 22.9518 23.9339C24.1489 20.4909 22.8923 18.5049 20.4228 17.2098C22.2212 16.792 23.5759 15.6004 23.9373 13.139ZM17.6484 22.0221C16.868 25.1808 11.9595 23.8749 9.71358 23.2774L9.71336 23.2773C9.51138 23.2236 9.33093 23.1756 9.17697 23.1371L10.6884 17.0337C10.876 17.0808 11.1051 17.1326 11.3647 17.1913L11.3647 17.1913C13.6876 17.7163 18.448 18.7923 17.6484 22.0221ZM11.8314 14.3589C13.7039 14.8623 17.7883 15.9602 18.4998 13.0893C19.2263 10.1527 15.2566 9.26749 13.3178 8.83517C13.0997 8.78654 12.9074 8.74364 12.7502 8.7042L11.3799 14.2398C11.5093 14.2723 11.6612 14.3131 11.8314 14.3589Z" fill="white"/>
</svg>
