<svg width="32" height="33" viewBox="0 0 32 33" fill="none" xmlns="http://www.w3.org/2000/svg">
<g clip-path="url(#clip0_1616_4430)">
<path d="M16 32.2744C24.8366 32.2744 32 25.111 32 16.2744C32 7.43786 24.8366 0.274414 16 0.274414C7.16344 0.274414 0 7.43786 0 16.2744C0 25.111 7.16344 32.2744 16 32.2744Z" fill="white"/>
<path d="M11.3346 20.5243C10.381 20.5243 9.60024 20.3003 8.99224 19.8523C8.39064 19.3979 8.08984 18.7451 8.08984 17.9067C8.08984 17.7275 8.10904 17.5163 8.14744 17.2603C8.24984 16.6843 8.39704 15.9931 8.58904 15.1803C9.13304 12.9787 10.541 11.8779 12.8066 11.8779C13.421 11.8779 13.9778 11.9803 14.4642 12.1915C14.9506 12.3899 15.3346 12.6971 15.6162 13.1067C15.8978 13.5099 16.0386 13.9899 16.0386 14.5467C16.0386 14.7131 16.0194 14.9243 15.981 15.1803C15.8594 15.8907 15.7186 16.5883 15.5458 17.2603C15.2642 18.3547 14.7842 19.1803 14.093 19.7243C13.4082 20.2619 12.4866 20.5243 11.3346 20.5243ZM11.5074 18.7963C11.9554 18.7963 12.333 18.6619 12.6466 18.3995C12.9666 18.1371 13.197 17.7339 13.3314 17.1835C13.517 16.4283 13.6578 15.7755 13.7538 15.2123C13.7858 15.0459 13.805 14.8731 13.805 14.6939C13.805 13.9643 13.4274 13.5995 12.6658 13.5995C12.2178 13.5995 11.8338 13.7339 11.5138 13.9963C11.2002 14.2587 10.9762 14.6619 10.8418 15.2123C10.6946 15.7499 10.5538 16.4027 10.4066 17.1835C10.3746 17.3435 10.3554 17.5099 10.3554 17.6891C10.349 18.4315 10.7394 18.7963 11.5074 18.7963Z" fill="black"/>
<path d="M16.5957 20.4086C16.5061 20.4086 16.4421 20.383 16.3909 20.3254C16.3525 20.2614 16.3397 20.191 16.3525 20.1078L18.0101 12.2998C18.0229 12.2102 18.0677 12.1398 18.1445 12.0822C18.2149 12.0246 18.2917 11.999 18.3749 11.999H21.5685C22.4581 11.999 23.1685 12.1846 23.7061 12.5494C24.2501 12.9206 24.5253 13.4518 24.5253 14.1494C24.5253 14.3478 24.4997 14.559 24.4549 14.7766C24.2565 15.6982 23.8533 16.3766 23.2389 16.8182C22.6373 17.2598 21.8117 17.4774 20.7621 17.4774H19.1429L18.5925 20.1078C18.5733 20.1974 18.5349 20.2678 18.4581 20.3254C18.3877 20.383 18.3109 20.4086 18.2277 20.4086H16.5957ZM20.8453 15.8198C21.1845 15.8198 21.4725 15.7302 21.7221 15.5446C21.9781 15.359 22.1445 15.0966 22.2277 14.751C22.2533 14.6166 22.2661 14.495 22.2661 14.3926C22.2661 14.1622 22.1957 13.983 22.0613 13.8614C21.9269 13.7334 21.6901 13.6694 21.3637 13.6694H19.9237L19.4693 15.8198H20.8453Z" fill="black"/>
</g>
<defs>
<clipPath id="clip0_1616_4430">
<rect width="32" height="32" fill="white" transform="translate(0 0.274414)"/>
</clipPath>
</defs>
</svg>
